<?xml version="1.0" encoding="utf-8"?>
<!-- Generator: Adobe Illustrator 21.1.0, SVG Export Plug-In . SVG Version: 6.00 Build 0)  -->
<svg version="1.1" id="Capa_1" xmlns="http://www.w3.org/2000/svg" xmlns:xlink="http://www.w3.org/1999/xlink" x="0px" y="0px"
	 viewBox="0 0 75 54" style="enable-background:new 0 0 75 54;" xml:space="preserve">
<style type="text/css">
	.st0{fill:#195582;}
</style>
<g>
	<g>
		<g>
			<path class="st0" d="M50.2,22.8c-1.1,0-2.3,0.4-3.2,1.1c-0.9-0.7-2-1.1-3.2-1.1c-2.9,0-5.3,2.4-5.3,5.3s2.4,5.3,5.3,5.3
				c1.2,0,2.3-0.4,3.2-1.1c0.9,0.7,2,1.1,3.2,1.1c2.9,0,5.3-2.4,5.3-5.3C55.5,25.2,53.1,22.8,50.2,22.8z M43.8,31.3
				c-1.8,0-3.2-1.4-3.2-3.2c0-1.8,1.4-3.2,3.2-3.2s3.2,1.4,3.2,3.2C47,29.9,45.6,31.3,43.8,31.3z M50.2,31.3c-0.6,0-1.3-0.2-1.8-0.6
				c0.5-0.8,0.7-1.7,0.7-2.6c0-0.9-0.2-1.8-0.7-2.6c0.5-0.4,1.1-0.6,1.8-0.6c1.8,0,3.2,1.4,3.2,3.2C53.4,29.9,51.9,31.3,50.2,31.3z"
				/>
		</g>
	</g>
	<g>
		<g>
			<rect x="11.1" y="44" class="st0" width="6.3" height="2.1"/>
		</g>
	</g>
	<g>
		<g>
			<rect x="22.7" y="44" class="st0" width="6.3" height="2.1"/>
		</g>
	</g>
	<g>
		<g>
			<rect x="34.3" y="44" class="st0" width="6.3" height="2.1"/>
		</g>
	</g>
	<g>
		<g>
			<rect x="46" y="44" class="st0" width="6.3" height="2.1"/>
		</g>
	</g>
	<g>
		<g>
			<rect x="11.1" y="27.1" class="st0" width="12.7" height="2.1"/>
		</g>
	</g>
	<g>
		<g>
			<rect x="11.1" y="35.5" class="st0" width="27.5" height="2.1"/>
		</g>
	</g>
	<g>
		<g>
			<path class="st0" d="M65,0.6H18.5c-2.9,0-5.3,2.4-5.3,5.3v11.6H10c-2.9,0-5.3,2.4-5.3,5.3v25.4c0,2.9,2.4,5.3,5.3,5.3h46.5
				c2.9,0,5.3-2.4,5.3-5.3V36.5H65c2.9,0,5.3-2.4,5.3-5.3V5.8C70.3,2.9,67.9,0.6,65,0.6z M59.7,48.1c0,1.8-1.4,3.2-3.2,3.2H10
				c-1.8,0-3.2-1.4-3.2-3.2V22.8c0-1.8,1.4-3.2,3.2-3.2h46.5c1.8,0,3.2,1.4,3.2,3.2V48.1z M68.2,31.2c0,1.8-1.4,3.2-3.2,3.2h-3.2
				V22.8c0-2.9-2.4-5.3-5.3-5.3H15.3v-4.2h52.9V31.2z M68.2,11.1H15.3V9h52.9V11.1z M68.2,6.9H15.3V5.8c0-1.8,1.4-3.2,3.2-3.2H65
				c1.8,0,3.2,1.4,3.2,3.2V6.9z"/>
		</g>
	</g>
</g>
</svg>
