<?xml version="1.0" encoding="UTF-8" standalone="no"?>
<svg
   xmlns:dc="http://purl.org/dc/elements/1.1/"
   xmlns:cc="http://creativecommons.org/ns#"
   xmlns:rdf="http://www.w3.org/1999/02/22-rdf-syntax-ns#"
   xmlns:svg="http://www.w3.org/2000/svg"
   xmlns="http://www.w3.org/2000/svg"
   xmlns:sodipodi="http://sodipodi.sourceforge.net/DTD/sodipodi-0.dtd"
   xmlns:inkscape="http://www.inkscape.org/namespaces/inkscape"
   id="svg"
   version="1.1"
   width="400"
   height="400"
   viewBox="0, 0, 400,400"
   sodipodi:docname="tigomoney-807b97a537318a2f902f.svg"
   inkscape:version="0.92.4 (5da689c313, 2019-01-14)">
  <metadata
     id="metadata873">
    <rdf:RDF>
      <cc:Work
         rdf:about="">
        <dc:format>image/svg+xml</dc:format>
        <dc:type
           rdf:resource="http://purl.org/dc/dcmitype/StillImage" />
      </cc:Work>
    </rdf:RDF>
  </metadata>
  <defs
     id="defs871" />
  <sodipodi:namedview
     pagecolor="#ffffff"
     bordercolor="#666666"
     borderopacity="1"
     objecttolerance="10"
     gridtolerance="10"
     guidetolerance="10"
     inkscape:pageopacity="0"
     inkscape:pageshadow="2"
     inkscape:window-width="1920"
     inkscape:window-height="1020"
     id="namedview869"
     showgrid="false"
     showguides="true"
     inkscape:zoom="2.0825"
     inkscape:cx="199.51981"
     inkscape:cy="165.78748"
     inkscape:window-x="0"
     inkscape:window-y="31"
     inkscape:window-maximized="1"
     inkscape:current-layer="svg">
    <inkscape:grid
       type="xygrid"
       id="grid875" />
  </sodipodi:namedview>
  <g
     id="svgg"
     transform="matrix(0.69992152,0,0,0.69992152,60.021295,60.054395)">
    <path
       id="path0"
       d="m 278.6,53.989 c -5.12,0.736 -13.106,4.094 -17.398,7.316 -6.683,5.017 -8.802,9.147 -8.802,17.161 0,5.196 -0.06,5.178 3.887,1.187 4.126,-4.171 9.793,-7.682 15.047,-9.324 16.217,-5.066 31.259,-1.747 42.277,9.331 4.183,4.205 4.113,4.247 3.914,-2.36 -0.153,-5.064 -0.256,-5.681 -1.303,-7.784 C 310.973,58.967 293.665,51.824 278.6,53.989 M 141,67.223 c -9.814,4.852 -6.32,20.177 4.6,20.177 11.406,0 14.971,-15.546 4.64,-20.237 -2.299,-1.045 -7.069,-1.014 -9.24,0.06 m -50.094,9.799 c -2.789,1.39 -6.896,5.821 -8.572,9.249 L 81,89 v 28.2 c 0,28.363 0.055,29.673 1.397,33 0.177,0.44 0.554,1.43 0.836,2.2 5.166,14.073 33.792,18.797 39.558,6.529 0.952,-2.025 1.59,-8.558 1.046,-10.723 -0.3,-1.196 -0.102,-1.207 -4.037,0.22 -3.725,1.351 -13.311,1.375 -15.6,0.038 -2.105,-1.229 -3.023,-2.246 -4.214,-4.664 l -0.985,-2 -0.128,-16.45 -0.128,-16.451 8.528,-0.208 c 10.943,-0.267 13.475,-1.109 15.59,-5.186 0.925,-1.783 1.52,-7.925 0.976,-10.09 L 123.585,92.4 h -11.76 c -6.468,0 -12.044,-0.109 -12.392,-0.243 -0.548,-0.21 -0.633,-1.313 -0.633,-8.2 V 76 h -2.921 c -2.332,0 -3.336,0.206 -4.973,1.022 M 277.4,91.379 c -35.185,6.784 -38.899,63.752 -4.8,73.61 1.32,0.382 2.922,0.855 3.56,1.052 3.5,1.083 15.084,0.252 20.04,-1.436 29.218,-9.953 31.405,-57.97 3.233,-70.965 -5.332,-2.459 -15.561,-3.509 -22.033,-2.261 m -65.6,0.238 c -24.43,2.071 -40.527,22.029 -37.034,45.918 2.025,13.847 11.42,24.581 25.573,29.217 9.566,3.133 23.971,2.695 31.432,-0.956 7.365,-3.603 9.429,-8.221 9.429,-21.093 0,-12.874 -1.947,-15.103 -13.191,-15.103 -6.024,0 -5.7,-0.247 -4.992,3.812 1.507,8.633 1.232,16.06 -0.659,17.828 -2.357,2.201 -8.205,2.407 -14.899,0.525 -17.615,-4.954 -19.695,-33.349 -3.052,-41.66 8.434,-4.211 22.692,-3.328 30.963,1.917 1.157,0.733 2.393,1.178 3.277,1.178 h 1.418 l -0.132,-4.9 C 239.593,95.74 230.035,90.072 211.8,91.617 m -74.885,29.834 c 0.141,29.694 0.119,29.382 2.368,34.002 3.229,6.634 9.703,10.147 18.699,10.147 8.332,0 10.974,-2.492 11.003,-10.382 L 169,151 l -3.8,-0.246 c -10.376,-0.673 -10.136,-0.048 -10.421,-27.154 -0.232,-22.018 -0.231,-22.009 -2.04,-24.67 -2.484,-3.652 -4.607,-4.581 -11.047,-4.834 l -4.908,-0.193 0.131,27.548 m 152.026,-13.44 c 8.068,2.492 12.081,11.155 11.298,24.389 -0.687,11.61 -5.941,17.699 -15.272,17.7 C 273.73,150.101 268,142.622 268,127.957 c 0,-15.521 8.636,-23.747 20.941,-19.946 M 193.614,185.5 c 0.032,13.108 4.701,21.13 17.186,29.527 13.486,9.071 32.402,12.412 46.2,8.16 22.615,-6.969 34.6,-20.002 34.6,-37.627 0,-6.459 -0.154,-6.69 -2.438,-3.656 -2.57,3.415 -5.137,6.132 -8.962,9.487 -2.796,2.452 -11.924,7.968 -14.4,8.702 -0.44,0.13 -1.88,0.635 -3.2,1.121 -16.228,5.976 -34.883,4.47 -49,-3.956 -5.928,-3.539 -11.598,-8.488 -16.676,-14.558 -3.378,-4.039 -3.326,-4.082 -3.31,2.8"
       inkscape:connector-curvature="0"
       style="fill:#f7f8f9;fill-rule:evenodd;stroke:none" />
    <path
       id="path1"
       d="m 57.3,0.292 c -1.155,0.083 -2.1,0.32 -2.1,0.529 0,0.208 -0.9,0.379 -2,0.379 -1.1,0 -2,0.18 -2,0.4 0,0.22 -0.54,0.4 -1.2,0.4 -0.66,0 -1.2,0.18 -1.2,0.4 0,0.22 -0.54,0.4 -1.2,0.4 -0.66,0 -1.2,0.18 -1.2,0.4 0,0.22 -0.45,0.4 -1,0.4 -0.55,0 -1,0.18 -1,0.4 0,0.22 -0.36,0.4 -0.8,0.4 -0.44,0 -0.8,0.18 -0.8,0.4 0,0.22 -0.36,0.4 -0.8,0.4 -0.44,0 -0.8,0.18 -0.8,0.4 0,0.22 -0.54,0.4 -1.2,0.4 -0.66,0 -1.2,0.18 -1.2,0.4 0,0.22 -0.32,0.4 -0.712,0.4 -0.391,0 -0.971,0.36 -1.288,0.8 -0.317,0.44 -0.897,0.8 -1.288,0.8 -0.392,0 -0.712,0.18 -0.712,0.4 0,0.22 -0.36,0.4 -0.8,0.4 -0.44,0 -0.8,0.18 -0.8,0.4 0,0.22 -0.272,0.4 -0.604,0.4 -0.639,0 -4.702,2.69 -4.929,3.264 -0.074,0.185 -0.31,0.336 -0.526,0.336 -0.216,0 -1.27,0.9 -2.341,2 -1.071,1.1 -2.144,2 -2.383,2 -0.566,0 -4.817,4.251 -4.817,4.817 0,0.239 -0.9,1.312 -2,2.383 -1.1,1.071 -2,2.125 -2,2.341 0,0.216 -0.151,0.452 -0.336,0.526 C 12.69,27.894 10,31.957 10,32.596 10,32.928 9.82,33.2 9.6,33.2 c -0.22,0 -0.4,0.36 -0.4,0.8 0,0.44 -0.18,0.8 -0.4,0.8 -0.22,0 -0.4,0.32 -0.4,0.712 0,0.391 -0.36,0.971 -0.8,1.288 C 7.16,37.117 6.8,37.697 6.8,38.088 6.8,38.48 6.62,38.8 6.4,38.8 6.18,38.8 6,39.34 6,40 c 0,0.66 -0.18,1.2 -0.4,1.2 -0.22,0 -0.4,0.36 -0.4,0.8 0,0.44 -0.18,0.8 -0.4,0.8 -0.22,0 -0.4,0.36 -0.4,0.8 0,0.44 -0.18,0.8 -0.4,0.8 -0.22,0 -0.4,0.45 -0.4,1 0,0.55 -0.18,1 -0.4,1 -0.22,0 -0.4,0.54 -0.4,1.2 0,0.66 -0.18,1.2 -0.4,1.2 -0.22,0 -0.4,0.54 -0.4,1.2 0,0.66 -0.18,1.2 -0.4,1.2 -0.22,0 -0.4,0.885 -0.4,1.967 0,1.217 -0.19,2.03 -0.5,2.133 -0.398,0.133 -0.522,20.521 -0.608,99.775 l -0.107,99.608 2.507,0.249 c 1.38,0.137 4.038,0.435 5.908,0.663 30.676,3.725 80.825,7.531 115.8,8.788 6.6,0.237 16.86,0.644 22.8,0.904 14.671,0.643 98.653,0.642 113.2,-0.002 5.94,-0.262 16.2,-0.667 22.8,-0.899 6.6,-0.231 14.97,-0.592 18.6,-0.801 3.63,-0.209 9.93,-0.572 14,-0.808 12.536,-0.725 31.326,-2.057 42.2,-2.992 11.613,-0.998 24.629,-2.173 28.6,-2.582 2.09,-0.215 6.008,-0.602 8.708,-0.859 l 4.907,-0.468 -0.107,-100.205 C 399.822,75.94 399.698,55.433 399.3,55.3 c -0.31,-0.103 -0.5,-0.916 -0.5,-2.133 0,-1.082 -0.18,-1.967 -0.4,-1.967 -0.22,0 -0.4,-0.54 -0.4,-1.2 0,-0.66 -0.18,-1.2 -0.4,-1.2 -0.22,0 -0.4,-0.54 -0.4,-1.2 0,-0.66 -0.18,-1.2 -0.4,-1.2 -0.22,0 -0.4,-0.45 -0.4,-1 0,-0.55 -0.18,-1 -0.4,-1 -0.22,0 -0.4,-0.36 -0.4,-0.8 0,-0.44 -0.18,-0.8 -0.4,-0.8 -0.22,0 -0.4,-0.36 -0.4,-0.8 0,-0.44 -0.18,-0.8 -0.4,-0.8 -0.22,0 -0.4,-0.54 -0.4,-1.2 0,-0.66 -0.18,-1.2 -0.4,-1.2 -0.22,0 -0.4,-0.32 -0.4,-0.712 0,-0.391 -0.36,-0.971 -0.8,-1.288 -0.44,-0.317 -0.8,-0.834 -0.8,-1.148 0,-0.775 -2.087,-4.852 -2.484,-4.852 -0.174,0 -0.317,-0.225 -0.318,-0.5 -10e-4,-0.275 -0.541,-1.075 -1.2,-1.778 -0.659,-0.703 -1.198,-1.39 -1.198,-1.526 0,-0.136 -0.9,-1.125 -2,-2.196 -1.1,-1.071 -2,-2.144 -2,-2.383 0,-0.564 -4.25,-4.817 -4.814,-4.817 -0.237,0 -1.294,-0.9 -2.349,-2 -1.054,-1.1 -2.109,-2 -2.344,-2 -0.234,0 -0.486,-0.151 -0.56,-0.336 C 372.106,12.69 368.043,10 367.404,10 367.072,10 366.8,9.82 366.8,9.6 c 0,-0.22 -0.36,-0.4 -0.8,-0.4 -0.44,0 -0.8,-0.18 -0.8,-0.4 0,-0.22 -0.32,-0.4 -0.712,-0.4 -0.391,0 -0.971,-0.36 -1.288,-0.8 C 362.883,7.16 362.303,6.8 361.912,6.8 361.52,6.8 361.2,6.62 361.2,6.4 361.2,6.18 360.66,6 360,6 c -0.66,0 -1.2,-0.18 -1.2,-0.4 0,-0.22 -0.27,-0.4 -0.6,-0.4 -0.33,0 -0.6,-0.18 -0.6,-0.4 0,-0.22 -0.349,-0.4 -0.776,-0.4 -0.427,0 -0.888,-0.18 -1.024,-0.4 -0.136,-0.22 -0.687,-0.4 -1.224,-0.4 -0.537,0 -0.976,-0.18 -0.976,-0.4 0,-0.22 -0.54,-0.4 -1.2,-0.4 -0.66,0 -1.2,-0.18 -1.2,-0.4 0,-0.22 -0.54,-0.4 -1.2,-0.4 -0.66,0 -1.2,-0.18 -1.2,-0.4 0,-0.22 -0.885,-0.4 -1.967,-0.4 -1.217,0 -2.03,-0.19 -2.133,-0.5 C 344.544,0.232 63.751,-0.166 57.3,0.292 M 294,54.554 c 15.33,3.847 23.184,11.441 23.525,22.746 0.199,6.607 0.269,6.565 -3.914,2.36 -11.018,-11.078 -26.06,-14.397 -42.277,-9.331 -5.254,1.642 -10.921,5.153 -15.047,9.324 -3.947,3.991 -3.887,4.009 -3.887,-1.187 0,-6.344 1.269,-10.013 4.68,-13.529 8.777,-9.049 24.556,-13.486 36.92,-10.383 M 150.24,67.163 c 10.331,4.691 6.766,20.237 -4.64,20.237 -10.92,0 -14.414,-15.325 -4.6,-20.177 2.171,-1.074 6.941,-1.105 9.24,-0.06 M 98.8,83.957 c 0,6.887 0.085,7.99 0.633,8.2 0.348,0.134 5.924,0.243 12.392,0.243 h 11.76 l 0.254,1.015 c 0.544,2.165 -0.051,8.307 -0.976,10.09 -2.115,4.077 -4.647,4.919 -15.59,5.186 l -8.528,0.208 0.128,16.451 0.128,16.45 0.985,2 c 1.191,2.418 2.109,3.435 4.214,4.664 2.289,1.337 11.875,1.313 15.6,-0.038 3.935,-1.427 3.737,-1.416 4.037,-0.22 0.544,2.165 -0.094,8.698 -1.046,10.723 -2.222,4.728 -6.695,6.663 -15.391,6.661 -12.244,-0.004 -21.101,-4.838 -24.167,-13.19 -0.282,-0.77 -0.659,-1.76 -0.836,-2.2 C 81.055,146.873 81,145.563 81,117.2 V 89 l 1.334,-2.729 C 85.377,80.047 90.714,76 95.879,76 H 98.8 v 7.957 m 195.633,7.964 c 32.316,8.648 33.609,61.837 1.767,72.684 -4.956,1.688 -16.54,2.519 -20.04,1.436 -0.638,-0.197 -2.24,-0.67 -3.56,-1.052 -31.162,-9.009 -31.496,-61.748 -0.456,-72.24 6.255,-2.115 16.112,-2.481 22.289,-0.828 M 226.2,92.234 c 9.153,2.21 13.495,7.29 13.733,16.066 l 0.132,4.9 h -1.418 c -0.884,0 -2.12,-0.445 -3.277,-1.178 -8.271,-5.245 -22.529,-6.128 -30.963,-1.917 -16.643,8.311 -14.563,36.706 3.052,41.66 6.694,1.882 12.542,1.676 14.899,-0.525 1.891,-1.768 2.166,-9.195 0.659,-17.828 -0.708,-4.059 -1.032,-3.812 4.992,-3.812 11.244,0 13.191,2.229 13.191,15.103 0,14.153 -3.438,20.058 -13.148,22.58 -15.909,4.133 -33.305,0.204 -43.279,-9.774 -16.26,-16.267 -13.223,-45.771 6.027,-58.559 9.789,-6.503 24.627,-9.318 35.4,-6.716 M 148,94.908 c 2.679,1.185 5.296,4.003 6.216,6.692 0.188,0.55 0.441,10.45 0.563,22 0.285,27.106 0.045,26.481 10.421,27.154 l 3.8,0.246 -0.015,4.218 c -0.029,7.89 -2.671,10.382 -11.003,10.382 -8.996,0 -15.47,-3.513 -18.699,-10.147 -2.249,-4.62 -2.227,-4.308 -2.368,-34.002 l -0.131,-27.548 4.908,0.193 c 3.18,0.125 5.401,0.41 6.308,0.812 m 130.966,12.887 c -7.183,2.268 -10.966,9.223 -10.966,20.162 0,14.665 5.73,22.144 16.967,22.143 11.188,-0.002 16.949,-9.731 15.098,-25.5 -1.531,-13.046 -10.466,-20.163 -21.099,-16.805 M 196.924,182.7 c 8.719,10.421 19.082,17.422 30.076,20.317 10.754,2.831 24.971,2.111 35.6,-1.803 1.32,-0.486 2.76,-0.991 3.2,-1.121 2.476,-0.734 11.604,-6.25 14.4,-8.702 3.825,-3.355 6.392,-6.072 8.962,-9.487 2.284,-3.034 2.438,-2.803 2.438,3.656 0,17.625 -11.985,30.658 -34.6,37.627 -20.244,6.239 -49.052,-4.092 -59.638,-21.387 -2.712,-4.43 -3.73,-8.858 -3.748,-16.3 -0.016,-6.882 -0.068,-6.839 3.31,-2.8 M 0.084,302.613 c 0.092,33.098 0.221,41.956 0.616,42.087 0.31,0.103 0.5,0.916 0.5,2.133 0,1.082 0.18,1.967 0.4,1.967 0.22,0 0.4,0.54 0.4,1.2 0,0.66 0.18,1.2 0.4,1.2 0.22,0 0.4,0.54 0.4,1.2 0,0.66 0.18,1.2 0.4,1.2 0.22,0 0.4,0.439 0.4,0.976 0,0.537 0.18,1.088 0.4,1.224 0.22,0.136 0.4,0.597 0.4,1.024 0,0.427 0.18,0.776 0.4,0.776 0.22,0 0.4,0.27 0.4,0.6 0,0.33 0.18,0.6 0.4,0.6 0.22,0 0.4,0.54 0.4,1.2 0,0.66 0.18,1.2 0.4,1.2 0.22,0 0.4,0.32 0.4,0.712 0,0.391 0.36,0.971 0.8,1.288 0.44,0.317 0.8,0.897 0.8,1.288 0,0.392 0.18,0.712 0.4,0.712 0.22,0 0.4,0.36 0.4,0.8 0,0.44 0.18,0.8 0.4,0.8 0.22,0 0.4,0.272 0.4,0.604 0,0.639 2.69,4.702 3.264,4.929 0.185,0.074 0.336,0.326 0.336,0.56 0,0.235 0.9,1.29 2,2.344 1.1,1.055 2,2.112 2,2.349 0,0.564 4.253,4.814 4.817,4.814 0.239,0 1.312,0.9 2.383,2 1.071,1.1 2.06,2 2.196,2 0.136,0 0.823,0.539 1.526,1.198 0.703,0.659 1.503,1.199 1.778,1.2 0.275,10e-4 0.5,0.144 0.5,0.318 0,0.397 4.077,2.484 4.852,2.484 0.314,0 0.831,0.36 1.148,0.8 0.317,0.44 0.897,0.8 1.288,0.8 0.392,0 0.712,0.18 0.712,0.4 0,0.22 0.54,0.4 1.2,0.4 0.66,0 1.2,0.18 1.2,0.4 0,0.22 0.36,0.4 0.8,0.4 0.44,0 0.8,0.18 0.8,0.4 0,0.22 0.36,0.4 0.8,0.4 0.44,0 0.8,0.18 0.8,0.4 0,0.22 0.45,0.4 1,0.4 0.55,0 1,0.18 1,0.4 0,0.22 0.54,0.4 1.2,0.4 0.66,0 1.2,0.18 1.2,0.4 0,0.22 0.54,0.4 1.2,0.4 0.66,0 1.2,0.18 1.2,0.4 0,0.22 0.885,0.4 1.967,0.4 1.217,0 2.03,0.19 2.133,0.5 0.133,0.399 29.429,0.5 144.7,0.5 115.271,0 144.567,-0.101 144.7,-0.5 0.096,-0.287 0.836,-0.5 1.733,-0.5 0.862,0 1.567,-0.18 1.567,-0.4 0,-0.22 0.72,-0.4 1.6,-0.4 0.88,0 1.6,-0.18 1.6,-0.4 0,-0.22 0.54,-0.4 1.2,-0.4 0.66,0 1.2,-0.18 1.2,-0.4 0,-0.22 0.439,-0.4 0.976,-0.4 0.537,0 1.088,-0.18 1.224,-0.4 0.136,-0.22 0.597,-0.4 1.024,-0.4 0.427,0 0.776,-0.18 0.776,-0.4 0,-0.22 0.27,-0.4 0.6,-0.4 0.33,0 0.6,-0.18 0.6,-0.4 0,-0.22 0.54,-0.4 1.2,-0.4 0.66,0 1.2,-0.18 1.2,-0.4 0,-0.22 0.32,-0.4 0.712,-0.4 0.391,0 0.971,-0.36 1.288,-0.8 0.317,-0.44 0.834,-0.8 1.148,-0.8 0.775,0 4.852,-2.087 4.852,-2.484 0,-0.174 0.225,-0.317 0.5,-0.318 0.275,-10e-4 1.075,-0.541 1.778,-1.2 0.703,-0.659 1.405,-1.198 1.56,-1.198 0.155,0 1.145,-0.9 2.199,-2 1.055,-1.1 2.112,-2 2.349,-2 0.562,0 4.814,-4.252 4.814,-4.814 0,-0.237 0.9,-1.294 2,-2.349 1.1,-1.054 2,-2.044 2,-2.199 0,-0.155 0.539,-0.857 1.198,-1.56 0.659,-0.703 1.199,-1.503 1.2,-1.778 10e-4,-0.275 0.144,-0.5 0.318,-0.5 0.397,0 2.484,-4.077 2.484,-4.852 0,-0.314 0.36,-0.831 0.8,-1.148 0.44,-0.317 0.8,-0.897 0.8,-1.288 0,-0.392 0.18,-0.712 0.4,-0.712 0.22,0 0.4,-0.54 0.4,-1.2 0,-0.66 0.18,-1.2 0.4,-1.2 0.22,0 0.4,-0.27 0.4,-0.6 0,-0.33 0.18,-0.6 0.4,-0.6 0.22,0 0.4,-0.349 0.4,-0.776 0,-0.427 0.18,-0.888 0.4,-1.024 0.22,-0.136 0.4,-0.687 0.4,-1.224 0,-0.537 0.18,-0.976 0.4,-0.976 0.22,0 0.4,-0.54 0.4,-1.2 0,-0.66 0.18,-1.2 0.4,-1.2 0.22,0 0.4,-0.54 0.4,-1.2 0,-0.66 0.18,-1.2 0.4,-1.2 0.22,0 0.4,-0.885 0.4,-1.967 0,-1.217 0.19,-2.03 0.5,-2.133 0.925,-0.308 0.941,-82.702 0.016,-82.693 -0.394,0.004 -2.336,0.18 -4.316,0.392 -25.069,2.679 -51.517,4.861 -77.8,6.417 -17.398,1.03 -23.713,1.316 -54.4,2.462 -18.821,0.704 -99.271,0.705 -118,0.002 -30.687,-1.151 -38.908,-1.523 -54.4,-2.462 -13.587,-0.825 -31.39,-2.139 -43.4,-3.205 -2.42,-0.215 -6.47,-0.57 -9,-0.789 -2.53,-0.218 -6.355,-0.583 -8.5,-0.811 -2.145,-0.227 -5.655,-0.595 -7.8,-0.818 -4.55,-0.472 -17.037,-1.892 -19.816,-2.253 l -1.915,-0.249 0.115,41.92 m 98.301,-1.019 c 2.499,0.914 5.12,3.283 6.491,5.866 1.156,2.18 1.14,2.182 3.947,-0.417 4.761,-4.408 9.431,-6.243 15.886,-6.243 12.409,0 17.188,9.323 13.738,26.8 -1.403,7.11 -2.415,12.369 -2.884,15 -0.236,1.32 -0.598,3.21 -0.805,4.2 -0.892,4.264 -1.958,10.142 -1.958,10.795 0,1.245 -1.988,1.686 -6.949,1.54 -6.496,-0.19 -6.112,1.609 -3.095,-14.535 0.658,-3.52 1.837,-9.85 2.62,-14.067 2.759,-14.854 1.696,-18.955 -4.902,-18.924 -6.589,0.031 -13.291,8.014 -15.271,18.191 -0.256,1.32 -0.62,3.12 -0.808,4 -0.188,0.88 -0.546,2.77 -0.795,4.2 -0.249,1.43 -0.608,3.32 -0.796,4.2 -0.189,0.88 -0.556,2.95 -0.817,4.6 -0.261,1.65 -0.618,3.54 -0.793,4.2 -0.175,0.66 -0.552,2.599 -0.837,4.308 -0.634,3.796 -1.13,4.05 -7.465,3.832 -5.495,-0.189 -5.526,-0.225 -4.523,-5.155 3.388,-16.647 6.031,-31.909 6.031,-34.821 0,-11.802 -13.02,-9.351 -19.323,3.636 -1.876,3.865 -2.37,5.675 -3.879,14.2 -0.467,2.64 -1.006,5.52 -1.197,6.4 -0.191,0.88 -0.552,2.77 -0.801,4.2 -0.249,1.43 -0.609,3.32 -0.8,4.2 -0.191,0.88 -0.565,2.733 -0.832,4.117 -0.611,3.173 -0.825,3.283 -6.368,3.283 -6.424,0 -6.875,-0.624 -5.197,-7.2 0.196,-0.77 0.828,-4.01 1.404,-7.2 0.577,-3.19 1.477,-8.05 2.001,-10.8 3.11,-16.324 4.153,-22.201 5.022,-28.313 0.578,-4.06 0.618,-4.087 6.067,-4.087 5.306,0 5.713,0.249 5.398,3.306 -0.301,2.913 -0.159,2.973 2.258,0.963 5.685,-4.728 14.117,-6.51 20.232,-4.275 m 84.449,0.042 c 27.524,8.964 15.562,56.892 -14.634,58.636 -21.853,1.262 -31.639,-22.264 -18.583,-44.672 3.417,-5.863 10.712,-11.758 16.783,-13.562 0.99,-0.294 2.25,-0.679 2.8,-0.855 2.236,-0.715 10.935,-0.426 13.634,0.453 m 60.247,-0.38 c 4.18,1.705 5.456,2.636 7.316,5.34 2.369,3.443 3.467,10.698 2.435,16.084 -0.202,1.056 -0.574,3.09 -0.827,4.52 -0.252,1.43 -0.612,3.32 -0.799,4.2 -0.188,0.88 -0.536,2.635 -0.774,3.9 -0.237,1.265 -0.614,3.245 -0.838,4.4 -0.223,1.155 -0.773,4.08 -1.222,6.5 -2.594,13.971 -1.987,13.002 -8.148,12.994 -7.406,-0.01 -7.082,0.823 -4.6,-11.794 0.476,-2.42 1.007,-5.21 1.181,-6.2 0.173,-0.99 0.521,-2.88 0.772,-4.2 0.252,-1.32 0.611,-3.21 0.799,-4.2 0.187,-0.99 0.654,-3.42 1.038,-5.4 1.607,-8.288 0.834,-13.445 -2.253,-15.02 -7.186,-3.666 -17.805,5.87 -20.287,18.22 -0.221,1.1 -0.614,3.08 -0.872,4.4 -0.258,1.32 -0.55,2.76 -0.649,3.2 -0.098,0.44 -0.531,2.78 -0.963,5.2 -3.06,17.141 -2.334,15.802 -8.566,15.794 -7.224,-0.01 -6.999,0.429 -5.042,-9.794 0.211,-1.1 0.579,-3.08 0.818,-4.4 0.239,-1.32 0.591,-3.21 0.782,-4.2 0.6,-3.113 1.204,-6.321 1.618,-8.6 0.372,-2.045 0.76,-4.114 1.613,-8.6 1.675,-8.803 2.107,-11.26 2.779,-15.791 0.943,-6.37 0.777,-6.209 6.408,-6.209 5.467,0 5.836,0.232 5.671,3.565 -0.138,2.79 -0.052,2.852 1.752,1.268 1.743,-1.53 5.655,-3.809 7.618,-4.438 0.857,-0.274 1.919,-0.643 2.359,-0.82 1.236,-0.496 9.619,-0.433 10.881,0.081 m 52.292,0.4 c 15.895,5.609 13.587,25.673 -3.573,31.071 -2.189,0.689 -3.534,0.967 -10.167,2.102 -1.191,0.204 -4.17,0.371 -6.62,0.371 -5.83,0 -6.117,0.337 -4.837,5.691 2.101,8.79 12.299,11.33 23.59,5.874 3.126,-1.51 3.558,-1.111 4.488,4.135 0.907,5.118 0.107,5.875 -8.654,8.196 -23.357,6.186 -38.305,-10.771 -30.356,-34.435 5.845,-17.396 22.312,-27.881 36.129,-23.005 m 26.221,0.341 c 0.407,0.218 0.839,0.893 0.959,1.5 0.258,1.305 1.718,9.221 3.451,18.703 0.683,3.74 1.58,8.51 1.993,10.6 0.413,2.09 0.866,4.554 1.008,5.476 0.228,1.485 1.395,2.213 1.395,0.87 0,-0.203 0.63,-1.714 1.4,-3.357 0.77,-1.644 2.048,-4.384 2.84,-6.089 0.792,-1.705 1.943,-4.18 2.559,-5.5 0.615,-1.32 2.644,-5.73 4.509,-9.8 1.865,-4.07 3.803,-8.3 4.307,-9.4 1.591,-3.471 1.439,-3.4 7.273,-3.4 5.439,0 6.712,0.311 6.712,1.641 0,1.072 -24.047,49.466 -27.011,54.359 -8.741,14.428 -15.861,21.342 -26.308,25.549 -2.567,1.034 -4.1,0.624 -4.671,-1.249 -0.284,-0.935 -0.853,-2.702 -1.264,-3.927 -1.077,-3.213 -0.997,-4.697 0.278,-5.182 7.488,-2.847 12.9,-7.158 17.45,-13.9 2.425,-3.594 2.44,-3.098 -0.474,-16.091 -0.173,-0.77 -0.713,-3.29 -1.2,-5.6 -0.487,-2.31 -1.027,-4.83 -1.2,-5.6 -0.173,-0.77 -0.698,-3.29 -1.167,-5.6 -0.469,-2.31 -1.121,-5.37 -1.448,-6.8 -0.326,-1.43 -0.763,-3.41 -0.971,-4.4 -0.207,-0.99 -0.856,-4.013 -1.441,-6.718 -1.426,-6.585 -1.51,-6.482 5.315,-6.482 2.731,0 5.298,0.179 5.706,0.397 M 284.8,311.36 c -5.47,1.206 -12.8,8.587 -12.8,12.887 0,1.502 13.821,-0.076 17.491,-1.998 5.405,-2.829 5.416,-9.758 0.019,-10.845 -0.721,-0.145 -1.58,-0.323 -1.91,-0.396 -0.33,-0.073 -1.59,0.085 -2.8,0.352 m -114.434,0.532 c -12.211,4.714 -18.33,26.075 -9.97,34.808 8.922,9.321 24.713,-4.484 24.79,-21.672 0.045,-9.972 -6.951,-16.173 -14.82,-13.136"
       inkscape:connector-curvature="0"
       style="fill:#04377c;fill-rule:evenodd;stroke:none" />
    <path
       id="path2"
       d="m 0,257.691 v 3.006 l 1.9,0.247 c 2.768,0.36 15.264,1.78 19.8,2.251 2.145,0.223 5.655,0.591 7.8,0.818 2.145,0.228 5.97,0.593 8.5,0.811 2.53,0.219 6.58,0.574 9,0.789 23.013,2.042 50.847,3.828 74.2,4.759 33.044,1.318 39.317,1.426 82.6,1.424 43.194,-0.002 49.636,-0.113 82.6,-1.423 34.519,-1.371 73.822,-4.257 108.6,-7.974 1.98,-0.212 3.915,-0.388 4.3,-0.392 0.604,-0.006 0.7,-0.419 0.7,-3.007 v -3 l -1.1,0.007 c -0.605,0.004 -2.81,0.19 -4.9,0.413 -8.955,0.958 -18.274,1.825 -36.2,3.365 -10.874,0.935 -29.664,2.267 -42.2,2.992 -4.07,0.236 -10.37,0.599 -14,0.808 -3.63,0.209 -12,0.57 -18.6,0.801 -6.6,0.232 -16.86,0.637 -22.8,0.899 -14.547,0.644 -98.529,0.645 -113.2,0.002 -5.94,-0.26 -16.2,-0.667 -22.8,-0.904 C 89.225,263.126 39.076,259.32 8.4,255.595 6.53,255.367 3.875,255.07 2.5,254.933 L 0,254.684 v 3.007 m 86.102,43.723 c -2.537,0.798 -5.65,2.543 -7.949,4.455 -2.417,2.01 -2.559,1.95 -2.258,-0.963 0.315,-3.057 -0.092,-3.306 -5.398,-3.306 -5.449,0 -5.489,0.027 -6.067,4.087 -0.869,6.112 -1.912,11.989 -5.022,28.313 -0.524,2.75 -1.424,7.61 -2.001,10.8 -0.576,3.19 -1.208,6.43 -1.404,7.2 -1.678,6.576 -1.227,7.2 5.197,7.2 5.543,0 5.757,-0.11 6.368,-3.283 0.267,-1.384 0.641,-3.237 0.832,-4.117 0.191,-0.88 0.551,-2.77 0.8,-4.2 0.249,-1.43 0.61,-3.32 0.801,-4.2 0.191,-0.88 0.73,-3.76 1.197,-6.4 1.509,-8.525 2.003,-10.335 3.879,-14.2 6.303,-12.987 19.323,-15.438 19.323,-3.636 0,2.912 -2.643,18.174 -6.031,34.821 -1.003,4.93 -0.972,4.966 4.523,5.155 6.335,0.218 6.831,-0.036 7.465,-3.832 0.285,-1.709 0.662,-3.648 0.837,-4.308 0.175,-0.66 0.532,-2.55 0.793,-4.2 0.261,-1.65 0.628,-3.72 0.817,-4.6 0.188,-0.88 0.547,-2.77 0.796,-4.2 0.249,-1.43 0.607,-3.32 0.795,-4.2 0.188,-0.88 0.552,-2.68 0.808,-4 1.98,-10.177 8.682,-18.16 15.271,-18.191 6.598,-0.031 7.661,4.07 4.902,18.924 -0.783,4.217 -1.962,10.547 -2.62,14.067 -3.017,16.144 -3.401,14.345 3.095,14.535 4.961,0.146 6.949,-0.295 6.949,-1.54 0,-0.653 1.066,-6.531 1.958,-10.795 0.207,-0.99 0.569,-2.88 0.805,-4.2 0.469,-2.631 1.481,-7.89 2.884,-15 3.45,-17.477 -1.329,-26.8 -13.738,-26.8 -6.455,0 -11.125,1.835 -15.886,6.243 -2.807,2.599 -2.791,2.597 -3.947,0.417 -3.027,-5.705 -11.347,-8.384 -18.774,-6.046 m 83.098,-0.231 c -0.55,0.176 -1.81,0.561 -2.8,0.855 -6.071,1.804 -13.366,7.699 -16.783,13.562 -13.056,22.408 -3.27,45.934 18.583,44.672 30.196,-1.744 42.158,-49.672 14.634,-58.636 -2.699,-0.879 -11.398,-1.168 -13.634,-0.453 m 63,-0.008 c -0.44,0.177 -1.502,0.546 -2.359,0.82 -1.963,0.629 -5.875,2.908 -7.618,4.438 -1.804,1.584 -1.89,1.522 -1.752,-1.268 0.165,-3.333 -0.204,-3.565 -5.671,-3.565 -5.631,0 -5.465,-0.161 -6.408,6.209 -0.672,4.531 -1.104,6.988 -2.779,15.791 -0.853,4.486 -1.241,6.555 -1.613,8.6 -0.414,2.279 -1.018,5.487 -1.618,8.6 -0.191,0.99 -0.543,2.88 -0.782,4.2 -0.239,1.32 -0.607,3.3 -0.818,4.4 -1.957,10.223 -2.182,9.784 5.042,9.794 6.232,0.008 5.506,1.347 8.566,-15.794 0.432,-2.42 0.865,-4.76 0.963,-5.2 0.099,-0.44 0.391,-1.88 0.649,-3.2 0.258,-1.32 0.651,-3.3 0.872,-4.4 2.482,-12.35 13.101,-21.886 20.287,-18.22 3.087,1.575 3.86,6.732 2.253,15.02 -0.384,1.98 -0.851,4.41 -1.038,5.4 -0.188,0.99 -0.547,2.88 -0.799,4.2 -0.251,1.32 -0.599,3.21 -0.772,4.2 -0.174,0.99 -0.705,3.78 -1.181,6.2 -2.482,12.617 -2.806,11.784 4.6,11.794 6.161,0.008 5.554,0.977 8.148,-12.994 0.449,-2.42 0.999,-5.345 1.222,-6.5 0.224,-1.155 0.601,-3.135 0.838,-4.4 0.238,-1.265 0.586,-3.02 0.774,-3.9 0.187,-0.88 0.547,-2.77 0.799,-4.2 0.253,-1.43 0.625,-3.464 0.827,-4.52 1.032,-5.386 -0.066,-12.641 -2.435,-16.084 -1.86,-2.704 -3.136,-3.635 -7.316,-5.34 -1.262,-0.514 -9.645,-0.577 -10.881,-0.081 m 49.308,0.242 c -22.676,6.2 -33.018,43.092 -15.428,55.037 7.131,4.843 19.772,5.102 29.557,0.608 3.382,-1.554 3.418,-1.639 2.617,-6.162 -0.93,-5.246 -1.362,-5.645 -4.488,-4.135 -11.291,5.456 -21.489,2.916 -23.59,-5.874 -1.28,-5.354 -0.993,-5.691 4.837,-5.691 2.45,0 5.429,-0.167 6.62,-0.371 6.633,-1.135 7.978,-1.413 10.167,-2.102 11.775,-3.704 17.08,-13.493 12.619,-23.284 -3.195,-7.014 -13.461,-10.61 -22.911,-8.026 m 28.708,0.965 c -0.679,0.75 -0.664,0.984 0.357,5.7 0.585,2.705 1.234,5.728 1.441,6.718 0.208,0.99 0.645,2.97 0.971,4.4 0.327,1.43 0.979,4.49 1.448,6.8 0.469,2.31 0.994,4.83 1.167,5.6 0.173,0.77 0.713,3.29 1.2,5.6 0.487,2.31 1.027,4.83 1.2,5.6 2.914,12.993 2.899,12.497 0.474,16.091 -4.55,6.742 -9.962,11.053 -17.45,13.9 -1.275,0.485 -1.355,1.969 -0.278,5.182 0.411,1.225 0.98,2.992 1.264,3.927 0.74,2.428 2.277,2.421 7.59,-0.032 12.96,-5.985 18.667,-13.927 38.046,-52.941 C 354.44,315.246 360,303.688 360,303.241 c 0,-1.33 -1.273,-1.641 -6.712,-1.641 -5.834,0 -5.682,-0.071 -7.273,3.4 -0.504,1.1 -2.442,5.33 -4.307,9.4 -1.865,4.07 -3.894,8.48 -4.509,9.8 -0.616,1.32 -1.767,3.795 -2.559,5.5 -0.792,1.705 -2.07,4.445 -2.84,6.089 -0.77,1.643 -1.4,3.154 -1.4,3.357 0,1.343 -1.167,0.615 -1.395,-0.87 -0.142,-0.922 -0.595,-3.386 -1.008,-5.476 -0.413,-2.09 -1.31,-6.86 -1.993,-10.6 -1.733,-9.482 -3.193,-17.398 -3.451,-18.703 -0.325,-1.643 -1.216,-1.897 -6.665,-1.897 -4.418,0 -5.042,0.086 -5.672,0.782 m -20.706,9.022 c 5.397,1.087 5.386,8.016 -0.019,10.845 -3.67,1.922 -17.491,3.5 -17.491,1.998 0,-5.272 10.672,-14.329 15.6,-13.239 0.33,0.073 1.189,0.251 1.91,0.396 m -110.472,0.913 c 3.872,1.977 6.175,6.738 6.148,12.711 -0.032,7.179 -3.032,14.728 -7.786,19.597 -10.247,10.495 -22.724,3.366 -20.628,-11.787 2.114,-15.286 12.954,-25.277 22.266,-20.521"
       inkscape:connector-curvature="0"
       style="fill:#f6c00e;fill-rule:evenodd;stroke:none" />
  </g>
</svg>
