<?xml version="1.0" encoding="utf-8"?>
<!-- Generator: Adobe Illustrator 21.1.0, SVG Export Plug-In . SVG Version: 6.00 Build 0)  -->
<svg version="1.1" id="Layer_1" xmlns="http://www.w3.org/2000/svg" xmlns:xlink="http://www.w3.org/1999/xlink" x="0px" y="0px"
	 viewBox="0 0 75 54" style="enable-background:new 0 0 75 54;" xml:space="preserve">
<style type="text/css">
	.st0{fill:#195582;}
</style>
<g>
	<path class="st0" d="M62.4,0.5H49.9c-0.9,0-1.5,0.7-1.5,1.5s0.7,1.5,1.5,1.5h10.9v11.8c0,0.9,0.7,1.5,1.5,1.5s1.5-0.7,1.5-1.5V2.1
		C63.9,1.2,63.2,0.5,62.4,0.5z"/>
	<path class="st0" d="M12.6,16.1c0.9,0,1.5-0.7,1.5-1.5V3.6H26c0.9,0,1.5-0.7,1.5-1.5S26.9,0.5,26,0.5H12.6c-0.9,0-1.5,0.7-1.5,1.5
		v12.5C11.1,15.4,11.8,16.1,12.6,16.1z"/>
	<path class="st0" d="M25.1,50.4H14.2V38.5c0-0.9-0.7-1.5-1.5-1.5s-1.5,0.7-1.5,1.5v13.4c0,0.9,0.7,1.5,1.5,1.5h12.5
		c0.9,0,1.5-0.7,1.5-1.5S25.9,50.4,25.1,50.4z"/>
	<path class="st0" d="M62.4,37.9c-0.9,0-1.5,0.7-1.5,1.5v10.9H49c-0.9,0-1.5,0.7-1.5,1.5s0.7,1.5,1.5,1.5h13.4
		c0.9,0,1.5-0.7,1.5-1.5V39.5C63.9,38.6,63.2,37.9,62.4,37.9L62.4,37.9z"/>
	<path class="st0" d="M31.3,31.3H18.8c-0.9,0-1.5,0.7-1.5,1.5v12.8c0,0.9,0.7,1.5,1.5,1.5h12.5c0.9,0,1.5-0.7,1.5-1.5V32.8
		C32.9,32,32.2,31.3,31.3,31.3z M29.8,44.1h-9.4v-9.7h9.4L29.8,44.1L29.8,44.1z"/>
	<path class="st0" d="M31.3,25.4H28c-0.9,0-1.5,0.7-1.5,1.5s0.7,1.5,1.5,1.5h3.3c0.9,0,1.5-0.7,1.5-1.5
		C32.9,26.1,32.2,25.4,31.3,25.4L31.3,25.4z"/>
	<path class="st0" d="M18.8,28.5h3.3c0.9,0,1.5-0.7,1.5-1.5s-0.7-1.5-1.5-1.5h-3.3c-0.9,0-1.5,0.7-1.5,1.5S18,28.5,18.8,28.5z"/>
	<path class="st0" d="M37.5,22.6c0.9,0,1.5-0.7,1.5-1.5V8.2c0-0.9-0.7-1.5-1.5-1.5c-0.9,0-1.5,0.7-1.5,1.5V21
		C36,21.9,36.7,22.6,37.5,22.6z"/>
	<path class="st0" d="M57.8,45.6v-7.4c0-0.9-0.7-1.5-1.5-1.5h-7.6V34c0-0.9-0.7-1.5-1.5-1.5h-8v-4h11.7v2.2c0,0.9,0.7,1.5,1.5,1.5
		s1.5-0.7,1.5-1.5v-2.2h2.4c0.9,0,1.5-0.7,1.5-1.5s-0.7-1.5-1.5-1.5H37.5c-0.9,0-1.5,0.7-1.5,1.5v18.6c0,0.9,0.7,1.5,1.5,1.5
		c0.9,0,1.5-0.7,1.5-1.5v-3.9h2.5c0.9,0,1.5-0.7,1.5-1.5s-0.7-1.5-1.5-1.5h-2.5v-3h6.5v2.7c0,0.9,0.7,1.5,1.5,1.5h7.6v4.3H43
		c-0.9,0-1.5,0.7-1.5,1.5s0.7,1.5,1.5,1.5h13.2C57.1,47.2,57.8,46.5,57.8,45.6L57.8,45.6z"/>
	<path class="st0" d="M31.3,6.7H18.8c-0.9,0-1.5,0.7-1.5,1.5V21c0,0.9,0.7,1.5,1.5,1.5h12.5c0.9,0,1.5-0.7,1.5-1.5V8.2
		C32.9,7.4,32.2,6.7,31.3,6.7L31.3,6.7z M29.8,19.5h-9.4V9.8h9.4L29.8,19.5L29.8,19.5z"/>
	<path class="st0" d="M43.7,22.6h12.5c0.9,0,1.5-0.7,1.5-1.5V8.2c0-0.9-0.7-1.5-1.5-1.5H43.7c-0.9,0-1.5,0.7-1.5,1.5V21
		C42.2,21.9,42.9,22.6,43.7,22.6z M45.3,9.8h9.4v9.7h-9.4V9.8z"/>
	<path class="st0" d="M23.9,41.3h2.4c0.5,0,0.8-0.4,0.8-0.8V38c0-0.5-0.4-0.8-0.8-0.8h-2.4c-0.5,0-0.8,0.4-0.8,0.8v2.5
		C23.1,40.9,23.4,41.3,23.9,41.3z"/>
	<path class="st0" d="M23.9,16.7h2.4c0.5,0,0.8-0.4,0.8-0.8v-2.5c0-0.5-0.4-0.8-0.8-0.8h-2.4c-0.5,0-0.8,0.4-0.8,0.8v2.5
		C23.1,16.3,23.4,16.7,23.9,16.7z"/>
	<path class="st0" d="M51.2,12.6h-2.4c-0.5,0-0.8,0.4-0.8,0.8v2.5c0,0.5,0.4,0.8,0.8,0.8h2.4c0.5,0,0.8-0.4,0.8-0.8v-2.5
		C52,13,51.6,12.6,51.2,12.6z"/>
</g>
</svg>
